<?xml version="1.0" encoding="utf-8"?>
<!-- Generator: Adobe Illustrator 26.0.3, SVG Export Plug-In . SVG Version: 6.00 Build 0)  -->
<svg version="1.1" id="Layer_1" xmlns="http://www.w3.org/2000/svg" xmlns:xlink="http://www.w3.org/1999/xlink" x="0px" y="0px"
	 viewBox="0 0 595.3 283.5" style="enable-background:new 0 0 595.3 283.5;" xml:space="preserve">
<style type="text/css">
	.st0{fill:#273189;}
	
		.st1{clip-path:url(#SVGID_00000059992626844009112800000007990383813191078814_);fill:url(#SVGID_00000027581677418523555890000002078591067564017047_);}
	.st2{fill:#00A9E2;}
	
		.st3{clip-path:url(#SVGID_00000089534838286811681400000004591476393724830131_);fill:url(#SVGID_00000183957718120021666670000014187574696828818578_);}
	
		.st4{clip-path:url(#SVGID_00000048489851637221238910000010384031868995083187_);fill:url(#SVGID_00000041253987572379288790000007375624739681615004_);}
	
		.st5{clip-path:url(#SVGID_00000106834684237527258170000004411068466643318702_);fill:url(#SVGID_00000067197323384770266080000016106086086240005785_);}
	
		.st6{clip-path:url(#SVGID_00000020384604140490805250000014488905157420336812_);fill:url(#SVGID_00000071532889951571868680000002561141087314597261_);}
	
		.st7{clip-path:url(#SVGID_00000051376206801241002940000001434563768680802210_);fill:url(#SVGID_00000147209247121509487140000013249092719654647944_);}
	
		.st8{clip-path:url(#SVGID_00000132784488518141458780000006492512597076374961_);fill:url(#SVGID_00000018915440294532462370000011579151821782525584_);}
	
		.st9{clip-path:url(#SVGID_00000099660637620508459280000005667743223672543663_);fill:url(#SVGID_00000054267163612492324670000007794521876822475153_);}
	
		.st10{clip-path:url(#SVGID_00000173134406512050543030000001718588202115646120_);fill:url(#SVGID_00000134967234228794357480000011201878768912081579_);}
	
		.st11{clip-path:url(#SVGID_00000128449361144717307990000006452998928341187476_);fill:url(#SVGID_00000070121006636180052540000016583400597727359420_);}
	.st12{fill:#0072BA;}
	
		.st13{clip-path:url(#SVGID_00000098925282705866358930000003874596315292487863_);fill:url(#SVGID_00000051376407710467171680000009137870199295376013_);}
	
		.st14{clip-path:url(#SVGID_00000011748625806251531700000003434115257014953602_);fill:url(#SVGID_00000101091548980984713760000006277617099616075937_);}
	
		.st15{clip-path:url(#SVGID_00000117664981269528647770000013188471505618046890_);fill:url(#SVGID_00000101809759766970844470000017509588150015899818_);}
	
		.st16{clip-path:url(#SVGID_00000083076647697328961540000000491898905750056127_);fill:url(#SVGID_00000031921390094552732880000013150283927423196315_);}
	
		.st17{clip-path:url(#SVGID_00000109716409628893213060000015667058615762845365_);fill:url(#SVGID_00000116211515679441611500000008971300958350326167_);}
	
		.st18{clip-path:url(#SVGID_00000162323887816308089220000002189258420122466460_);fill:url(#SVGID_00000008858841171539107710000001189425814604414633_);}
</style>
<path class="st0" d="M351.2,139.6c4.3,0,8.4,0.2,12.5-0.1c4.8-0.3,8.7-4.9,9-10c0.3-4.6-3.2-9.5-7.8-10.1c-4.5-0.5-9-0.1-13.7-0.1
	V139.6z M337.3,105.6c0.2-0.1,0.5-0.1,0.7-0.2c9.5,0,19-0.2,28.5,0.2c10.8,0.5,20,10.4,20.7,21.1c0.7,10.9-3.4,19-13.1,24.1
	c-0.3,0.2-0.5,0.3-1,0.6c4.7,8.9,9.3,17.7,14.2,26.8c-5,0-9.7,0-14.4-0.1c-0.5,0-1.1-0.8-1.4-1.4c-3.9-7.3-7.9-14.7-11.7-22
	c-0.6-1.1-1.3-1.6-2.6-1.5c-1.9,0.1-3.9,0-6.1,0l0,24.9h-13.9V105.6z"/>
<path class="st0" d="M269.1,141.9c0,0.4,0,0.8,0,1.2c0.1,14.6,13.9,25.4,28.1,21.9c7-1.7,15.8-8.7,17.2-19.7
	c1.9-15.3-10.5-30.1-28.1-26.3C276.2,121.1,269.1,130.6,269.1,141.9L269.1,141.9z M328,142.2c0,20.8-15.7,36.1-36.7,36.1
	c-19.8-0.1-35.8-16.4-35.7-36.3c0.2-20.7,16.1-36.6,36.7-36.6C312,105.4,328.1,122,328,142.2z"/>
<polygon class="st0" points="504.8,178.6 461,178.6 461,105.5 504.8,105.5 504.8,119.2 474.8,119.2 474.8,135.3 504.8,135.3 
	504.8,148.7 474.8,148.7 474.8,164.9 504.8,164.9 "/>
<polygon class="st0" points="413.5,118.6 394,118.6 394,105.1 447.6,105.1 447.6,118.6 427.9,118.6 427.9,177.8 413.5,177.8 "/>
<polygon class="st0" points="531.3,164.9 558,164.9 558,178.2 517.9,178.2 517.9,105.5 531.3,105.5 "/>
<path class="st0" d="M232,105.5c0.7,0,1.3-0.1,1.8-0.1c3.9,0,7.8,0,11.7,0c0.1,0.5,0.1,0.8,0.1,1.1c0,17.1,0,34.2-0.1,51.4
	c0,0,0,0,0,0c0,3.5-0.5,7-1.6,10.3c-2.1,6.1-6.8,9.5-13.1,9.9c-7.4,0.4-14.9,0.1-22.5,0.1v-13.3h2.2c5.7,0,11.3,0,17,0
	c2.5,0,3.7-1,4.1-3.5c0.2-1.6,0.4-3.2,0.4-4.9c0-16.2,0-32.4,0-48.6L232,105.5z"/>
<g>
	<defs>
		<path id="SVGID_1_" d="M76.8,112.9c-0.4,1.4-0.8,2.7-1.2,4.1c-0.2,0.6-0.3,1.3-0.5,1.9c-0.1,0.6-0.3,1.2-0.4,1.8
			c-0.5,2.4-0.8,4.9-0.8,7.4c0,2.3,0.2,4.5,0.7,6.7c0.5,2.4,1.4,4.8,2.3,7.6c-2.7-1.2-5-3.5-6.4-6.1c-1.5-2.6-3.1-9.1-3-12.1
			c0-3,1.7-2.5,3.2-5c0.2-0.3,0.4-0.6,0.6-0.9c0.2-0.3,0.4-0.6,0.6-0.9c0.5-0.6,1-1.1,1.5-1.6C74.3,114.6,75.5,113.7,76.8,112.9
			L76.8,112.9z"/>
	</defs>
	<clipPath id="SVGID_00000140724567384491228020000010963591404757561232_">
		<use xlink:href="#SVGID_1_"  style="overflow:visible;"/>
	</clipPath>
	
		<linearGradient id="SVGID_00000164486552801487440520000000463131017747458695_" gradientUnits="userSpaceOnUse" x1="76.0225" y1="126.9374" x2="69.6225" y2="128.0774">
		<stop  offset="0" style="stop-color:#545454"/>
		<stop  offset="0.2" style="stop-color:#666566"/>
		<stop  offset="1" style="stop-color:#AAAAAA"/>
	</linearGradient>
	
		<rect x="67.3" y="112.9" style="clip-path:url(#SVGID_00000140724567384491228020000010963591404757561232_);fill:url(#SVGID_00000164486552801487440520000000463131017747458695_);" width="9.5" height="29.4"/>
</g>
<path class="st2" d="M70.4,154c-5.3-1.8-7.2-5.5-10.4-10.2c-3.2-4.7-7.8-10.4-7.8-16.1c0-5.7,2.3-15,7.8-16.1
	c3.2-4.7,5.3-8.1,10.6-9.9c-2.9,3.7-4.6,7.5-6.8,12c-2.1,4.4-3.2,9.2-3.3,14.1c0,4.8,0.8,10,2.9,14.4
	C65.6,146.5,66.8,148.6,70.4,154"/>
<g>
	<defs>
		<path id="SVGID_00000130627989044114661610000017708786084992955524_" d="M58.9,136.1c-0.7-2.7-1.1-5.6-1.1-8.4
			c0-4.9,1.1-9.7,3.3-14c2.1-4.5,5.5-8.3,9.5-12c-5.4,1.8-10.1,5.3-13.4,9.9c-1.8,2.7-3.2,5.6-4,8.8c0,0.3,0.1,0.6,0.1,0.9
			C53.8,125.7,55.2,131.3,58.9,136.1"/>
	</defs>
	<clipPath id="SVGID_00000150065222590330499320000013105221823654333616_">
		<use xlink:href="#SVGID_00000130627989044114661610000017708786084992955524_"  style="overflow:visible;"/>
	</clipPath>
	
		<linearGradient id="SVGID_00000094605485561162642980000008272274930405242299_" gradientUnits="userSpaceOnUse" x1="61.7209" y1="103.8034" x2="61.9509" y2="128.2534">
		<stop  offset="0" style="stop-color:#1254A3"/>
		<stop  offset="0.161" style="stop-color:#006EB6"/>
		<stop  offset="0.3319" style="stop-color:#0084C8"/>
		<stop  offset="0.5031" style="stop-color:#0096D5"/>
		<stop  offset="0.6725" style="stop-color:#00A2DD"/>
		<stop  offset="0.8392" style="stop-color:#00A9E2"/>
		<stop  offset="1" style="stop-color:#00ABE4"/>
	</linearGradient>
	
		<rect x="53.2" y="101.6" style="clip-path:url(#SVGID_00000150065222590330499320000013105221823654333616_);fill:url(#SVGID_00000094605485561162642980000008272274930405242299_);" width="17.4" height="34.4"/>
</g>
<g>
	<defs>
		<path id="SVGID_00000008135465402780135520000016203854475548859045_" d="M61,141.7c-0.8-1.7-1.5-3.5-2-5.3c-0.8-1-1.4-2-2.1-3
			c-2-3.5-3.2-7.6-3.7-12.2c0-0.2-0.1-0.8-0.1-0.9c-0.6,2.4-0.9,4.9-1,7.4c0,5.8,1.8,11.4,5,16.1c3.2,4.7,7.9,8.4,13.2,10.2
			C66.4,150.3,63.2,146.2,61,141.7"/>
	</defs>
	<clipPath id="SVGID_00000028284320488724214850000009349395368144455333_">
		<use xlink:href="#SVGID_00000008135465402780135520000016203854475548859045_"  style="overflow:visible;"/>
	</clipPath>
	
		<linearGradient id="SVGID_00000104672570470806748520000011977290655594738100_" gradientUnits="userSpaceOnUse" x1="61.1672" y1="122.4233" x2="61.3972" y2="146.3333">
		<stop  offset="0" style="stop-color:#00ABE4"/>
		<stop  offset="0.2695" style="stop-color:#00AAE3"/>
		<stop  offset="0.4327" style="stop-color:#00A5E0"/>
		<stop  offset="0.5676" style="stop-color:#009DDA"/>
		<stop  offset="0.6871" style="stop-color:#0091D1"/>
		<stop  offset="0.7964" style="stop-color:#0081C5"/>
		<stop  offset="0.8981" style="stop-color:#006DB6"/>
		<stop  offset="0.9925" style="stop-color:#1156A4"/>
		<stop  offset="1" style="stop-color:#1254A3"/>
	</linearGradient>
	
		<rect x="52.2" y="120.3" style="clip-path:url(#SVGID_00000028284320488724214850000009349395368144455333_);fill:url(#SVGID_00000104672570470806748520000011977290655594738100_);" width="18.2" height="33.7"/>
</g>
<path class="st2" d="M59.3,160.4c-6.5-2.5-10.3-7-14.2-12.9c-3.9-5.8-8.3-12.9-8.3-19.9c0-7.1,2.1-14,6-19.9
	c3.9-5.8,9.5-10.3,16.1-12.8c-4,4.5-7.4,9.5-10,14.9c-2.8,5.5-4.3,11.7-4.3,17.9c0,6.2,1.5,12.3,4.3,17.9
	C51.8,151.1,54.1,156.1,59.3,160.4"/>
<g>
	<defs>
		<path id="SVGID_00000036938464808554493130000007625737914455685791_" d="M43.9,138.3c-1-3.5-1.5-7.1-1.5-10.7
			c0-6.2,1.5-12.3,4.3-17.8c2.8-5.6,7-10.5,12.2-14.9c-6.6,2.5-12.2,7-16.1,12.8c-0.9,1.3-1.7,2.7-2.4,4.1c-0.1,0.7-0.2,1.3-0.2,2
			C39.6,120.6,39.9,129.5,43.9,138.3"/>
	</defs>
	<clipPath id="SVGID_00000161623706563392754290000004224207246182714003_">
		<use xlink:href="#SVGID_00000036938464808554493130000007625737914455685791_"  style="overflow:visible;"/>
	</clipPath>
	
		<linearGradient id="SVGID_00000143604593659172513010000018244575600715528850_" gradientUnits="userSpaceOnUse" x1="49.1332" y1="97.685" x2="49.3732" y2="128.455">
		<stop  offset="0" style="stop-color:#1254A3"/>
		<stop  offset="0.161" style="stop-color:#006EB6"/>
		<stop  offset="0.3319" style="stop-color:#0084C8"/>
		<stop  offset="0.5031" style="stop-color:#0096D5"/>
		<stop  offset="0.6725" style="stop-color:#00A2DD"/>
		<stop  offset="0.8392" style="stop-color:#00A9E2"/>
		<stop  offset="1" style="stop-color:#00ABE4"/>
	</linearGradient>
	
		<rect x="39.6" y="94.9" style="clip-path:url(#SVGID_00000161623706563392754290000004224207246182714003_);fill:url(#SVGID_00000143604593659172513010000018244575600715528850_);" width="19.4" height="43.4"/>
</g>
<g>
	<defs>
		<path id="SVGID_00000062170896795618668380000008036426856132722356_" d="M46.7,145.5c-1-2-1.9-4.1-2.5-6.3
			c-1.4-2.8-2.4-5.7-3.1-8.7c-0.8-3.6-1.2-7.4-1.2-11.1c0-1.9,0.1-3.7,0.3-5.6c0.1-0.5,0.1-1.1,0.2-1.6c-2.3,4.8-3.5,10.1-3.5,15.4
			c0,7.1,2.1,14,6,19.9c3.9,5.8,7.9,10.3,16.4,12.9C52.6,156.1,49.5,151.1,46.7,145.5"/>
	</defs>
	<clipPath id="SVGID_00000144338296856947795530000000410750753327623358_">
		<use xlink:href="#SVGID_00000062170896795618668380000008036426856132722356_"  style="overflow:visible;"/>
	</clipPath>
	
		<linearGradient id="SVGID_00000023986492810954622710000004751720423378179770_" gradientUnits="userSpaceOnUse" x1="47.8953" y1="115.2832" x2="48.1853" y2="149.5132">
		<stop  offset="0" style="stop-color:#00ABE4"/>
		<stop  offset="0.2695" style="stop-color:#00AAE3"/>
		<stop  offset="0.4327" style="stop-color:#00A5E0"/>
		<stop  offset="0.5676" style="stop-color:#009DDA"/>
		<stop  offset="0.6871" style="stop-color:#0091D1"/>
		<stop  offset="0.7964" style="stop-color:#0081C5"/>
		<stop  offset="0.8981" style="stop-color:#006DB6"/>
		<stop  offset="0.9925" style="stop-color:#1156A4"/>
		<stop  offset="1" style="stop-color:#1254A3"/>
	</linearGradient>
	
		<rect x="36.8" y="112.2" style="clip-path:url(#SVGID_00000144338296856947795530000000410750753327623358_);fill:url(#SVGID_00000023986492810954622710000004751720423378179770_);" width="22.5" height="48.2"/>
</g>
<path class="st2" d="M76.8,112.9c-0.4,1.4-0.8,2.7-1.2,4.1c-0.2,0.6-0.3,1.3-0.5,1.9c-0.1,0.6-0.3,1.2-0.4,1.8
	c-0.5,2.4-0.8,4.9-0.8,7.4c0,2.3,0.2,4.5,0.7,6.7c0.5,2.4,1.4,4.8,2.3,7.6c-2.7-1.2-5-3.5-6.4-6.1c-1.4-2.6-2.1-5.5-2.1-8.4
	c0-0.1,0-0.1,0-0.2c0-3,0.8-5.9,2.3-8.5c0.2-0.3,0.4-0.6,0.6-0.9c0.2-0.3,0.4-0.6,0.6-0.9c0.5-0.6,1-1.1,1.5-1.6
	C74.3,114.6,75.5,113.7,76.8,112.9L76.8,112.9z"/>
<g>
	<defs>
		<path id="SVGID_00000000919453189772770910000000921214665800181656_" d="M70.6,132.6c-0.4-1.6-0.7-3.3-0.7-4.9
			c0-2.7,0.6-5.4,1.8-7.9c1.2-2.6,2.9-4.9,5.1-6.8c-3,1-5.4,3-7.2,5.6c-1,1.5-1.8,3.2-2.3,4.9c0,0.2,0,0.3,0.1,0.5
			C67.7,126.6,68.6,129.9,70.6,132.6"/>
	</defs>
	<clipPath id="SVGID_00000098899656715552769520000003775155451889955988_">
		<use xlink:href="#SVGID_00000000919453189772770910000000921214665800181656_"  style="overflow:visible;"/>
	</clipPath>
	
		<linearGradient id="SVGID_00000103240720794779187660000002815789625458714041_" gradientUnits="userSpaceOnUse" x1="72.0036" y1="114.194" x2="72.1236" y2="128.144">
		<stop  offset="0" style="stop-color:#1254A3"/>
		<stop  offset="0.161" style="stop-color:#006EB6"/>
		<stop  offset="0.3319" style="stop-color:#0084C8"/>
		<stop  offset="0.5031" style="stop-color:#0096D5"/>
		<stop  offset="0.6725" style="stop-color:#00A2DD"/>
		<stop  offset="0.8392" style="stop-color:#00A9E2"/>
		<stop  offset="1" style="stop-color:#00ABE4"/>
	</linearGradient>
	
		<rect x="67.3" y="112.9" style="clip-path:url(#SVGID_00000098899656715552769520000003775155451889955988_);fill:url(#SVGID_00000103240720794779187660000002815789625458714041_);" width="9.5" height="19.7"/>
</g>
<g>
	<defs>
		<path id="SVGID_00000007408599173953279210000008177968719208731304_" d="M71.7,135.6c-0.5-1-0.8-1.9-1.1-3
			c-0.4-0.5-0.8-1.1-1.1-1.7c-1.1-2.1-1.9-4.4-2.1-6.8c0-0.1,0-0.5-0.1-0.5c-0.3,1.4-0.5,2.8-0.5,4.2c0,3.2,1,6.4,2.8,9.1
			c1.8,2.6,4.2,4.6,7.2,5.6C74.7,140.5,73,138.1,71.7,135.6L71.7,135.6z"/>
	</defs>
	<clipPath id="SVGID_00000181085399699142638110000013854738243481126031_">
		<use xlink:href="#SVGID_00000007408599173953279210000008177968719208731304_"  style="overflow:visible;"/>
	</clipPath>
	
		<linearGradient id="SVGID_00000178182431492920069790000008305154942670444476_" gradientUnits="userSpaceOnUse" x1="71.722" y1="124.6939" x2="71.852" y2="138.0839">
		<stop  offset="0" style="stop-color:#00ABE4"/>
		<stop  offset="0.2695" style="stop-color:#00AAE3"/>
		<stop  offset="0.4327" style="stop-color:#00A5E0"/>
		<stop  offset="0.5676" style="stop-color:#009DDA"/>
		<stop  offset="0.6871" style="stop-color:#0091D1"/>
		<stop  offset="0.7964" style="stop-color:#0081C5"/>
		<stop  offset="0.8981" style="stop-color:#006DB6"/>
		<stop  offset="0.9925" style="stop-color:#1156A4"/>
		<stop  offset="1" style="stop-color:#1254A3"/>
	</linearGradient>
	
		<rect x="66.8" y="123.5" style="clip-path:url(#SVGID_00000181085399699142638110000013854738243481126031_);fill:url(#SVGID_00000178182431492920069790000008305154942670444476_);" width="10" height="18.9"/>
</g>
<g>
	<defs>
		<path id="SVGID_00000077308954023401032730000016049485935605734552_" d="M103.1,161.2c4.9-7.6,9-17.5,12.3-29.5
			c1.8-7,3.4-14.2,4.4-21.3l0-39.7c-15.4,0-27.9,12-27.9,26.8V168c0,0,0,0,0,0c0,2.2-0.4,4.4-1.2,6.5
			C95.3,171.4,99.4,167,103.1,161.2"/>
	</defs>
	<clipPath id="SVGID_00000029726598554573493760000010472948105432503231_">
		<use xlink:href="#SVGID_00000077308954023401032730000016049485935605734552_"  style="overflow:visible;"/>
	</clipPath>
	
		<linearGradient id="SVGID_00000020396220629998395560000018156501293837109660_" gradientUnits="userSpaceOnUse" x1="105.0481" y1="77.2535" x2="105.4181" y2="150.9035">
		<stop  offset="0" style="stop-color:#1299D6"/>
		<stop  offset="0.21" style="stop-color:#1A87C9"/>
		<stop  offset="0.36" style="stop-color:#1682C6"/>
		<stop  offset="1" style="stop-color:#0951A0"/>
	</linearGradient>
	
		<rect x="90.7" y="70.6" style="clip-path:url(#SVGID_00000029726598554573493760000010472948105432503231_);fill:url(#SVGID_00000020396220629998395560000018156501293837109660_);" width="29.1" height="103.8"/>
</g>
<g>
	<defs>
		<path id="SVGID_00000051369650019882027510000010358779672560672660_" d="M115.6,131.2c-3.2,12-7.4,22-12.3,29.6
			c-3.8,5.9-8.1,10.4-12.8,13.5c-2.9,7-10,12-18.3,12h0c-8.9,0-17.2,4.5-21.8,11.8L41.1,213h31.2c26.3,0,47.6-20.4,47.6-45.6v-56
			C118.8,118.1,117.3,124.7,115.6,131.2L115.6,131.2z"/>
	</defs>
	<clipPath id="SVGID_00000101095374423538695800000009599915935789569955_">
		<use xlink:href="#SVGID_00000051369650019882027510000010358779672560672660_"  style="overflow:visible;"/>
	</clipPath>
	
		<linearGradient id="SVGID_00000082352834208518594010000006323396131021939132_" gradientUnits="userSpaceOnUse" x1="79.8301" y1="117.8963" x2="80.8501" y2="190.0063">
		<stop  offset="0" style="stop-color:#1254A3"/>
		<stop  offset="0.21" style="stop-color:#0F58A5"/>
		<stop  offset="0.59" style="stop-color:#1658A5"/>
		<stop  offset="0.7151" style="stop-color:#125DA9"/>
		<stop  offset="0.9103" style="stop-color:#006AB4"/>
		<stop  offset="1" style="stop-color:#0072BA"/>
	</linearGradient>
	
		<rect x="41.1" y="111.4" style="clip-path:url(#SVGID_00000101095374423538695800000009599915935789569955_);fill:url(#SVGID_00000082352834208518594010000006323396131021939132_);" width="78.7" height="101.6"/>
</g>
<g>
	<defs>
		<path id="SVGID_00000124140912417732628470000015309875942034745220_" d="M135.4,112.9c0.4,1.4,0.8,2.7,1.2,4.1
			c0.2,0.6,0.3,1.3,0.5,1.9c0.1,0.6,0.3,1.2,0.4,1.8c0.5,2.4,0.8,4.9,0.8,7.4c0,2.3-0.2,4.5-0.7,6.7c-0.5,2.4-1.4,4.8-2.3,7.6
			c2.7-1.2,5-3.5,6.4-6.1c1.5-2.6,3.1-9.1,3-12.1c0-3-1.7-2.5-3.2-5c-0.2-0.3-0.4-0.6-0.6-0.9c-0.2-0.3-0.4-0.6-0.6-0.9
			c-0.5-0.6-1-1.1-1.5-1.6C137.9,114.6,136.7,113.7,135.4,112.9L135.4,112.9z"/>
	</defs>
	<clipPath id="SVGID_00000049199357005294191500000004856639536011497382_">
		<use xlink:href="#SVGID_00000124140912417732628470000015309875942034745220_"  style="overflow:visible;"/>
	</clipPath>
	
		<linearGradient id="SVGID_00000102510785390152814840000007516889184727081391_" gradientUnits="userSpaceOnUse" x1="-22991.2227" y1="-975.6496" x2="-22821.2031" y2="-967.5402">
		<stop  offset="0" style="stop-color:#545454"/>
		<stop  offset="0.2" style="stop-color:#666566"/>
		<stop  offset="1" style="stop-color:#AAAAAA"/>
	</linearGradient>
	
		<rect x="135.4" y="112.9" style="clip-path:url(#SVGID_00000049199357005294191500000004856639536011497382_);fill:url(#SVGID_00000102510785390152814840000007516889184727081391_);" width="9.5" height="29.4"/>
</g>
<path class="st12" d="M141.8,154c5.3-1.8,7.2-5.5,10.4-10.2c3.2-4.7,7.8-10.4,7.8-16.1c0-5.7-2.3-15-7.8-16.1
	c-3.2-4.7-5.3-8.1-10.6-9.9c2.9,3.7,4.6,7.5,6.8,12c2.1,4.4,3.2,9.2,3.2,14.1c0,4.8-0.8,10-2.9,14.4
	C146.6,146.6,145.4,148.6,141.8,154"/>
<g>
	<defs>
		<path id="SVGID_00000023961778018878325710000016423933926286508206_" d="M153.3,136.1c0.7-2.7,1.1-5.6,1.1-8.4
			c0-4.9-1.1-9.7-3.2-14.1c-2.1-4.5-5.5-8.3-9.5-12c5.4,1.8,10.1,5.3,13.4,9.9c1.8,2.7,3.2,5.6,4,8.8c0,0.3-0.1,0.6-0.1,0.9
			C158.5,125.7,157,131.3,153.3,136.1"/>
	</defs>
	<clipPath id="SVGID_00000147220653936472537950000002975357077703564716_">
		<use xlink:href="#SVGID_00000023961778018878325710000016423933926286508206_"  style="overflow:visible;"/>
	</clipPath>
	
		<linearGradient id="SVGID_00000123436280624034872810000016552581988301307327_" gradientUnits="userSpaceOnUse" x1="150.233" y1="103.8034" x2="150.453" y2="128.2534">
		<stop  offset="0" style="stop-color:#00ABE4"/>
		<stop  offset="0.2695" style="stop-color:#00AAE3"/>
		<stop  offset="0.4327" style="stop-color:#00A5E0"/>
		<stop  offset="0.5676" style="stop-color:#009DDA"/>
		<stop  offset="0.6871" style="stop-color:#0091D1"/>
		<stop  offset="0.7964" style="stop-color:#0081C5"/>
		<stop  offset="0.8981" style="stop-color:#006DB6"/>
		<stop  offset="0.9925" style="stop-color:#1156A4"/>
		<stop  offset="1" style="stop-color:#1254A3"/>
	</linearGradient>
	
		<rect x="141.7" y="101.6" style="clip-path:url(#SVGID_00000147220653936472537950000002975357077703564716_);fill:url(#SVGID_00000123436280624034872810000016552581988301307327_);" width="17.4" height="34.5"/>
</g>
<g>
	<defs>
		<path id="SVGID_00000108289015122328275300000008332268602886257078_" d="M151.2,141.7c0.8-1.7,1.5-3.5,2-5.3c0.8-1,1.5-2,2.1-3
			c2-3.5,3.2-7.6,3.7-12.2c0-0.2,0.1-0.8,0.1-0.9c0.6,2.4,0.9,4.9,1,7.4c0,5.8-1.8,11.4-5,16.1c-3.2,4.7-7.9,8.4-13.2,10.2
			C145.9,150.3,149.1,146.2,151.2,141.7"/>
	</defs>
	<clipPath id="SVGID_00000034811107409927269520000004129166686109229484_">
		<use xlink:href="#SVGID_00000108289015122328275300000008332268602886257078_"  style="overflow:visible;"/>
	</clipPath>
	
		<linearGradient id="SVGID_00000111888364812702944670000014588474665980473495_" gradientUnits="userSpaceOnUse" x1="150.7772" y1="122.4232" x2="151.0172" y2="146.3332">
		<stop  offset="0" style="stop-color:#1254A3"/>
		<stop  offset="0.161" style="stop-color:#006EB6"/>
		<stop  offset="0.3319" style="stop-color:#0084C8"/>
		<stop  offset="0.5031" style="stop-color:#0096D5"/>
		<stop  offset="0.6725" style="stop-color:#00A2DD"/>
		<stop  offset="0.8392" style="stop-color:#00A9E2"/>
		<stop  offset="1" style="stop-color:#00ABE4"/>
	</linearGradient>
	
		<rect x="141.8" y="120.3" style="clip-path:url(#SVGID_00000034811107409927269520000004129166686109229484_);fill:url(#SVGID_00000111888364812702944670000014588474665980473495_);" width="18.2" height="33.7"/>
</g>
<path class="st12" d="M152.9,160.4c6.5-2.5,10.3-7,14.2-12.9c3.9-5.8,8.3-12.9,8.3-19.9c0-7.1-2.1-14-6-19.9
	c-3.9-5.8-9.5-10.3-16.1-12.8c4,4.5,7.4,9.5,10,14.9c2.8,5.5,4.3,11.7,4.3,17.9c0,6.2-1.5,12.3-4.3,17.9
	C160.5,151.1,158.2,156.1,152.9,160.4"/>
<g>
	<defs>
		<path id="SVGID_00000041280080173466826040000005009607166704803242_" d="M168.3,138.3c1-3.5,1.5-7.1,1.5-10.7
			c0-6.2-1.5-12.3-4.3-17.8c-2.8-5.6-7-10.5-12.2-14.9c6.5,2.5,12.2,7,16.1,12.8c0.9,1.3,1.7,2.7,2.4,4.1c0.1,0.7,0.2,1.3,0.2,2
			C172.6,120.6,172.3,129.5,168.3,138.3"/>
	</defs>
	<clipPath id="SVGID_00000180360906046675006020000000884703969336509626_">
		<use xlink:href="#SVGID_00000041280080173466826040000005009607166704803242_"  style="overflow:visible;"/>
	</clipPath>
	
		<linearGradient id="SVGID_00000170989664624612596520000009247383360959941016_" gradientUnits="userSpaceOnUse" x1="162.8032" y1="97.6819" x2="163.0432" y2="128.4519">
		<stop  offset="0" style="stop-color:#00ABE4"/>
		<stop  offset="0.2695" style="stop-color:#00AAE3"/>
		<stop  offset="0.4327" style="stop-color:#00A5E0"/>
		<stop  offset="0.5676" style="stop-color:#009DDA"/>
		<stop  offset="0.6871" style="stop-color:#0091D1"/>
		<stop  offset="0.7964" style="stop-color:#0081C5"/>
		<stop  offset="0.8981" style="stop-color:#006DB6"/>
		<stop  offset="0.9925" style="stop-color:#1156A4"/>
		<stop  offset="1" style="stop-color:#1254A3"/>
	</linearGradient>
	
		<rect x="153.3" y="94.9" style="clip-path:url(#SVGID_00000180360906046675006020000000884703969336509626_);fill:url(#SVGID_00000170989664624612596520000009247383360959941016_);" width="19.4" height="43.4"/>
</g>
<g>
	<defs>
		<path id="SVGID_00000168101317325193599870000008987959385497924258_" d="M165.5,145.5c1-2,1.9-4.1,2.5-6.3
			c1.4-2.8,2.4-5.7,3.1-8.7c0.8-3.6,1.2-7.4,1.2-11.1c0-1.9-0.1-3.7-0.3-5.6c-0.1-0.5-0.1-1.1-0.2-1.6c2.3,4.8,3.5,10.1,3.5,15.4
			c0,7.1-2.1,14-6.1,19.9c-3.9,5.8-7.9,10.3-16.4,12.9C159.6,156.1,162.7,151.1,165.5,145.5"/>
	</defs>
	<clipPath id="SVGID_00000020398543598267951910000002016359636730906013_">
		<use xlink:href="#SVGID_00000168101317325193599870000008987959385497924258_"  style="overflow:visible;"/>
	</clipPath>
	
		<linearGradient id="SVGID_00000034088951028065601830000015061932200705560713_" gradientUnits="userSpaceOnUse" x1="163.9724" y1="115.2831" x2="164.2624" y2="149.4931">
		<stop  offset="0" style="stop-color:#1254A3"/>
		<stop  offset="0.161" style="stop-color:#006EB6"/>
		<stop  offset="0.3319" style="stop-color:#0084C8"/>
		<stop  offset="0.5031" style="stop-color:#0096D5"/>
		<stop  offset="0.6725" style="stop-color:#00A2DD"/>
		<stop  offset="0.8392" style="stop-color:#00A9E2"/>
		<stop  offset="1" style="stop-color:#00ABE4"/>
	</linearGradient>
	
		<rect x="152.9" y="112.2" style="clip-path:url(#SVGID_00000020398543598267951910000002016359636730906013_);fill:url(#SVGID_00000034088951028065601830000015061932200705560713_);" width="22.5" height="48.2"/>
</g>
<path class="st12" d="M135.4,112.9c0.4,1.4,0.8,2.7,1.2,4.1c0.2,0.6,0.3,1.3,0.5,1.9c0.1,0.6,0.3,1.2,0.4,1.8
	c0.5,2.4,0.8,4.9,0.8,7.4c0,2.3-0.2,4.5-0.7,6.7c-0.5,2.4-1.4,4.8-2.3,7.6c2.7-1.2,5-3.5,6.4-6.1c1.4-2.6,2.1-5.5,2.1-8.4
	c0-0.1,0-0.1,0-0.2c0-3-0.8-5.9-2.3-8.5c-0.2-0.3-0.4-0.6-0.6-0.9c-0.2-0.3-0.4-0.6-0.6-0.9c-0.5-0.6-1-1.1-1.5-1.6
	C137.9,114.6,136.7,113.7,135.4,112.9L135.4,112.9z"/>
<g>
	<defs>
		<path id="SVGID_00000006706653098375096030000000463226180611371440_" d="M141.6,132.6c0.4-1.6,0.7-3.3,0.7-4.9
			c0-2.7-0.6-5.4-1.8-7.9c-1.2-2.6-2.9-4.9-5.1-6.8c3,1,5.4,3,7.2,5.6c1,1.5,1.8,3.2,2.3,4.9c0,0.2,0,0.3,0,0.5
			C144.6,126.6,143.7,129.9,141.6,132.6"/>
	</defs>
	<clipPath id="SVGID_00000034806146759089630810000002079709013163728567_">
		<use xlink:href="#SVGID_00000006706653098375096030000000463226180611371440_"  style="overflow:visible;"/>
	</clipPath>
	
		<linearGradient id="SVGID_00000134955769187790174830000003649680158325777057_" gradientUnits="userSpaceOnUse" x1="140.0822" y1="114.194" x2="140.2022" y2="128.144">
		<stop  offset="0" style="stop-color:#00ABE4"/>
		<stop  offset="0.2695" style="stop-color:#00AAE3"/>
		<stop  offset="0.4327" style="stop-color:#00A5E0"/>
		<stop  offset="0.5676" style="stop-color:#009DDA"/>
		<stop  offset="0.6871" style="stop-color:#0091D1"/>
		<stop  offset="0.7964" style="stop-color:#0081C5"/>
		<stop  offset="0.8981" style="stop-color:#006DB6"/>
		<stop  offset="0.9925" style="stop-color:#1156A4"/>
		<stop  offset="1" style="stop-color:#1254A3"/>
	</linearGradient>
	
		<rect x="135.4" y="112.9" style="clip-path:url(#SVGID_00000034806146759089630810000002079709013163728567_);fill:url(#SVGID_00000134955769187790174830000003649680158325777057_);" width="9.5" height="19.7"/>
</g>
<g>
	<defs>
		<path id="SVGID_00000031177420092347544060000004112342069032908222_" d="M140.5,135.6c0.5-0.9,0.8-1.9,1.1-3
			c0.4-0.5,0.8-1.1,1.1-1.7c1.1-2.1,1.9-4.5,2.1-6.8c0-0.1,0-0.5,0.1-0.5c0.3,1.4,0.5,2.8,0.5,4.2c0,3.2-1,6.4-2.8,9.1
			c-1.8,2.6-4.2,4.6-7.2,5.6C137.6,140.5,139.3,138.1,140.5,135.6L140.5,135.6z"/>
	</defs>
	<clipPath id="SVGID_00000172436657759588861650000007687308189133541766_">
		<use xlink:href="#SVGID_00000031177420092347544060000004112342069032908222_"  style="overflow:visible;"/>
	</clipPath>
	
		<linearGradient id="SVGID_00000069393641401800110820000011971270228491663259_" gradientUnits="userSpaceOnUse" x1="140.3711" y1="124.7039" x2="140.5011" y2="138.0939">
		<stop  offset="0" style="stop-color:#1254A3"/>
		<stop  offset="0.161" style="stop-color:#006EB6"/>
		<stop  offset="0.3319" style="stop-color:#0084C8"/>
		<stop  offset="0.5031" style="stop-color:#0096D5"/>
		<stop  offset="0.6725" style="stop-color:#00A2DD"/>
		<stop  offset="0.8392" style="stop-color:#00A9E2"/>
		<stop  offset="1" style="stop-color:#00ABE4"/>
	</linearGradient>
	
		<rect x="135.4" y="123.5" style="clip-path:url(#SVGID_00000172436657759588861650000007687308189133541766_);fill:url(#SVGID_00000069393641401800110820000011971270228491663259_);" width="10" height="18.9"/>
</g>
</svg>
